<svg id="Layer_1" data-name="Layer 1" xmlns="http://www.w3.org/2000/svg" viewBox="0 0 1226.64 595.28"><defs><style>.cls-1{fill:#0088a9;}.cls-2{fill:#fff;}.cls-3{fill:none;stroke:#1ecc63;stroke-miterlimit:10;stroke-width:6px;}.cls-4{fill:#1ecc63;}</style></defs><path class="cls-1" d="M260.92,239a4.71,4.71,0,0,1-4.7-4.7v-6.4H230v6.4a4.71,4.71,0,0,1-4.7,4.7H160V196.58a13.38,13.38,0,0,1,13.37-13.37H312.77a13.38,13.38,0,0,1,13.37,13.37V239Z"/><path class="cls-2" d="M312.77,185.71a10.87,10.87,0,0,1,10.87,10.87v39.91H260.92a2.2,2.2,0,0,1-2.2-2.2v-6.71a2.19,2.19,0,0,0-2.19-2.19H229.64a2.19,2.19,0,0,0-2.19,2.19v6.71a2.2,2.2,0,0,1-2.2,2.2H162.53V196.58a10.87,10.87,0,0,1,10.87-10.87H312.77m0-5H173.4a15.89,15.89,0,0,0-15.87,15.87v44.91h67.72a7.21,7.21,0,0,0,7.2-7.2v-3.9h21.27v3.9a7.21,7.21,0,0,0,7.2,7.2h67.72V196.58a15.89,15.89,0,0,0-15.87-15.87Z"/><path class="cls-1" d="M172.86,332.41c-7.37,0-13.37-5-13.37-11.15V302.87L228,288.58,245,302.05l49.87-19.7h30.77v38.91c0,6.15-6,11.15-13.38,11.15Z"/><path class="cls-2" d="M323.11,284.85v36.41c0,4.78-4.87,8.65-10.88,8.65H172.86c-6,0-10.87-3.87-10.87-8.65V304.91l65.41-13.64,17.15,13.64,50.77-20.06h27.79m5-5H294.37l-.89.35-48.08,19-14.89-11.83-1.84-1.46-2.29.47L161,300l-4,.83v20.42c0,7.53,7.12,13.65,15.87,13.65H312.23c8.76,0,15.88-6.12,15.88-13.65V279.85Z"/><polyline class="cls-3" points="309.1 255.81 245.08 281.1 227.94 267.46 162.53 281.1"/><path class="cls-4" d="M322.57,250.49c-7.27.15-16.72-.75-23.27-3.08l8,9.1.35,12.13C310.88,262.46,317.16,255.34,322.57,250.49Z"/><polygon class="cls-1" points="393.55 300.1 378.53 258.91 370.5 299.07 354.84 299.07 371.25 217.55 380.28 217.55 396.74 268.79 412.83 217.55 421.81 217.55 438.44 299.07 422.72 299.07 415 258.96 400 300.1 393.55 300.1"/><path class="cls-1" d="M421,218.55l16.22,79.52H423.54l-8.24-42.85-16,43.88h-5.05l-16-43.88-8.57,42.85H356.06l16-79.52h7.48l17.2,53.54,16.81-53.54H421m1.64-2H412.09l-.44,1.4-14.92,47.53-15.27-47.54-.45-1.39H370.43l-.32,1.61-16,79.52-.48,2.39h17.7l.32-1.61,7.17-35.86,13.56,37.19.48,1.31h7.85l.48-1.31L414.7,262.7l6.88,35.75.31,1.62h17.77l-.49-2.4L423,218.15l-.32-1.6Z"/><polygon class="cls-1" points="444.89 299.02 444.89 217.55 497.61 217.55 497.61 232.08 460.99 232.08 460.99 248.69 487.25 248.69 487.25 262.68 460.99 262.68 460.99 284.49 497.01 284.49 497.01 299.02 444.89 299.02"/><path class="cls-1" d="M496.61,218.55v12.53H460v18.61h26.26v12H460v23.81h36V298H445.89V218.55h50.72m2-2H443.89V300H498V283.49H462V263.68h26.26v-16H462V233.08h36.62V216.55Z"/><path class="cls-1" d="M553.34,299l-21.21-32.83c-1.88,0-4.36-.15-7.4-.31V299H508.08V217.55h1c.79,0,3.85-.13,9.12-.4s9.65-.41,12.91-.41c20.74,0,31.26,8.22,31.26,24.43A22.62,22.62,0,0,1,558,254.61a23.83,23.83,0,0,1-9.83,8.08L572,299Zm-28.61-47c2.12.16,3.79.24,5,.24,5.68,0,9.85-.79,12.41-2.35,2.4-1.46,3.62-4.44,3.62-8.85,0-3.54-1.27-5.93-3.86-7.31-2.78-1.47-7.27-2.21-13.37-2.21a35.42,35.42,0,0,0-3.77.21Z"/><path class="cls-1" d="M531.11,217.74q30.25,0,30.26,23.43A21.55,21.55,0,0,1,557.2,254a22.6,22.6,0,0,1-10.53,8.19L570.16,298H553.89L532.68,265.2q-3.21,0-8.95-.38V298H509.08V218.55q1.2,0,9.17-.4t12.86-.41m-1.41,35.47q8.84,0,12.93-2.49t4.1-9.71q0-5.87-4.4-8.19c-2.92-1.56-7.54-2.33-13.83-2.33a36.27,36.27,0,0,0-4.77.32v22.08c2.6.22,4.59.32,6,.32m1.41-37.47c-3.27,0-7.63.14-13,.41-6.54.33-8.54.4-9.07.4h-2V300h18.65V266.93c2.31.12,4.26.21,5.85.25l20.63,31.92.59.92h21.07l-2-3.1L549.65,263.1a24.8,24.8,0,0,0,9.17-7.9,23.59,23.59,0,0,0,4.55-14c0-8.42-2.8-14.87-8.34-19.15-5.38-4.17-13.43-6.28-23.92-6.28Zm-5.38,16.87c.95-.08,1.88-.12,2.77-.12,5.93,0,10.27.7,12.9,2.1,2.27,1.2,3.33,3.24,3.33,6.42,0,4.1-1,6.72-3.14,8-2.4,1.46-6.4,2.2-11.89,2.2-1,0-2.31-.06-4-.17V232.61Z"/><path class="cls-1" d="M606.23,300.38c-10.94,0-19.47-3.9-25.34-11.57s-8.75-18.09-8.75-31.2c0-11.5,3.21-21.37,9.52-29.34s15-12.13,25.66-12.13c11.68,0,20.75,3.7,27,11s9.29,17.49,9.29,30.48-3.26,23.45-9.69,31.12S618.1,300.38,606.23,300.38Zm1.09-69.71c-6,0-10.46,2.33-13.65,7.12s-4.88,11.52-4.88,19.82c0,9.06,1.54,16.15,4.57,21.06a14.11,14.11,0,0,0,12.87,7.17c6.78,0,11.8-2.31,15.34-7.08s5.36-11.91,5.36-21.15C626.93,239.48,620.51,230.67,607.32,230.67Z"/><path class="cls-1" d="M607.32,217.14q17.13,0,26.2,10.63t9.05,29.84q0,19.2-9.46,30.48t-26.88,11.29q-16,0-24.54-11.18t-8.55-30.59q0-17,9.31-28.72t24.87-11.75m-1.09,69.7q10.57,0,16.14-7.48t5.56-21.75q0-27.95-20.61-27.94-9.45,0-14.49,7.57t-5,20.37q0,13.93,4.72,21.59a15.17,15.17,0,0,0,13.72,7.64m1.09-71.7c-11,0-19.87,4.21-26.44,12.5s-9.74,18.24-9.74,30c0,13.33,3,24,9,31.81s14.86,12,26.13,12c12.17,0,21.73-4,28.41-12s9.93-18.55,9.93-31.77-3.2-23.71-9.53-31.13-15.74-11.34-27.72-11.34Zm-1.09,69.7a13.19,13.19,0,0,1-12-6.69c-2.93-4.76-4.42-11.67-4.42-20.54,0-8.09,1.58-14.57,4.71-19.26,3-4.49,7.19-6.68,12.82-6.68,12.52,0,18.61,8.49,18.61,25.94,0,9-1.74,15.94-5.17,20.56s-8.09,6.67-14.53,6.67Z"/><polygon class="cls-1" points="654.05 299.02 654.05 217.55 708.39 217.55 708.39 232.08 670.15 232.08 670.15 248.69 698.09 248.69 698.09 262.68 670.15 262.68 670.15 299.02 654.05 299.02"/><path class="cls-1" d="M707.4,218.55v12.53H669.15v18.61h27.94v12H669.15V298h-14.1V218.55H707.4m2-2H653.05V300h18.1V263.68h27.94v-16H671.15V233.08H709.4V216.55Z"/><path class="cls-1" d="M749.16,300.38c-10.94,0-19.47-3.9-25.34-11.57s-8.75-18.09-8.75-31.2c0-11.5,3.21-21.37,9.52-29.34s15-12.13,25.66-12.13c11.68,0,20.75,3.7,27,11s9.29,17.49,9.29,30.48-3.26,23.45-9.69,31.12S761,300.38,749.16,300.38Zm1.09-69.71c-6,0-10.46,2.33-13.65,7.12s-4.88,11.52-4.88,19.82c0,9.06,1.54,16.15,4.57,21.06a14.11,14.11,0,0,0,12.87,7.17c6.78,0,11.8-2.31,15.34-7.08s5.36-11.91,5.36-21.15C769.86,239.48,763.44,230.67,750.25,230.67Z"/><path class="cls-1" d="M750.25,217.14q17.13,0,26.2,10.63t9.06,29.84q0,19.2-9.47,30.48t-26.88,11.29q-16,0-24.54-11.18t-8.55-30.59q0-17,9.31-28.72t24.87-11.75m-1.09,69.7q10.58,0,16.14-7.48t5.56-21.75q0-27.95-20.61-27.94-9.45,0-14.49,7.57t-5,20.37q0,13.93,4.72,21.59a15.19,15.19,0,0,0,13.72,7.64m1.09-71.7c-11,0-19.87,4.21-26.44,12.5s-9.74,18.24-9.74,30c0,13.33,3,24,9,31.81s14.86,12,26.13,12c12.17,0,21.73-4,28.41-12s9.94-18.55,9.94-31.77-3.21-23.7-9.54-31.13-15.74-11.34-27.72-11.34Zm-1.09,69.7a13.19,13.19,0,0,1-12-6.69c-2.93-4.76-4.42-11.67-4.42-20.54,0-8.1,1.58-14.58,4.71-19.26,3-4.49,7.19-6.68,12.82-6.68,12.52,0,18.61,8.49,18.61,25.94,0,9-1.74,15.94-5.17,20.56s-8.09,6.67-14.53,6.67Z"/><polygon class="cls-1" points="796.98 299.02 796.98 217.55 813.08 217.55 813.08 284.49 848.99 284.49 848.99 299.02 796.98 299.02"/><path class="cls-1" d="M812.08,218.55v66.94H848V298H798V218.55h14.1m2-2H796V300h54V283.49H814.08V216.55Z"/><rect class="cls-1" x="858.65" y="217.55" width="16.1" height="81.47"/><path class="cls-1" d="M873.76,218.55V298H859.65V218.55h14.11m2-2H857.65V300h18.11V216.55Z"/><path class="cls-1" d="M919.59,300.38c-10.94,0-19.47-3.9-25.34-11.57s-8.75-18.09-8.75-31.2c0-11.5,3.21-21.37,9.52-29.34s15-12.13,25.66-12.13c11.68,0,20.75,3.7,27,11s9.29,17.49,9.29,30.48-3.26,23.45-9.69,31.12S931.45,300.38,919.59,300.38Zm1.09-69.71c-6,0-10.46,2.33-13.65,7.12s-4.88,11.52-4.88,19.82c0,9.06,1.54,16.15,4.57,21.06a14.11,14.11,0,0,0,12.87,7.17c6.78,0,11.8-2.31,15.34-7.08s5.36-11.91,5.36-21.15C940.29,239.48,933.87,230.67,920.68,230.67Z"/><path class="cls-1" d="M920.68,217.14q17.13,0,26.2,10.63t9.06,29.84q0,19.2-9.47,30.48t-26.88,11.29q-16,0-24.54-11.18t-8.55-30.59q0-17,9.31-28.72t24.87-11.75m-1.09,69.7q10.57,0,16.14-7.48t5.56-21.75q0-27.95-20.61-27.94-9.45,0-14.49,7.57t-5,20.37q0,13.93,4.72,21.59a15.19,15.19,0,0,0,13.72,7.64m1.09-71.7c-11,0-19.87,4.21-26.44,12.5s-9.74,18.24-9.74,30c0,13.33,3,24,9,31.81s14.86,12,26.13,12c12.17,0,21.73-4,28.41-12s9.94-18.55,9.94-31.77-3.21-23.7-9.54-31.13-15.74-11.34-27.72-11.34Zm-1.09,69.7a13.19,13.19,0,0,1-12-6.69c-2.93-4.76-4.42-11.67-4.42-20.54,0-8.1,1.58-14.58,4.71-19.26,3-4.49,7.19-6.68,12.82-6.68,12.52,0,18.61,8.49,18.61,25.94,0,9-1.74,15.94-5.17,20.56s-8.09,6.67-14.53,6.67Z"/></svg>